<?xml version="1.0" standalone="no"?>
<!DOCTYPE svg PUBLIC "-//W3C//DTD SVG 20010904//EN"
 "http://www.w3.org/TR/2001/REC-SVG-20010904/DTD/svg10.dtd">
<svg version="1.0" xmlns="http://www.w3.org/2000/svg"
 width="674.000000pt" height="674.000000pt" viewBox="0 0 674.000000 674.000000"
 preserveAspectRatio="xMidYMid meet">
<metadata>
Created by potrace 1.14, written by Peter Selinger 2001-2017
</metadata>
<g transform="translate(0.000000,674.000000) scale(0.100000,-0.100000)"
fill="#000000" stroke="none">
<path d="M3229 6310 c-88 -23 -144 -50 -348 -169 -96 -55 -177 -101 -180 -101
-3 0 -17 -9 -30 -19 l-25 -19 61 -88 c145 -213 293 -554 403 -934 12 -41 26
-86 31 -100 5 -14 38 -133 75 -265 99 -359 99 -360 138 -495 60 -205 62 -214
146 -495 44 -148 97 -319 117 -380 69 -212 154 -460 168 -492 8 -17 15 -35 15
-41 0 -5 11 -35 25 -66 26 -58 56 -81 85 -66 27 14 285 495 577 1072 98 193
117 219 195 259 40 20 127 26 218 15 19 -2 71 -7 115 -11 44 -3 127 -10 185
-15 58 -6 134 -12 170 -15 138 -12 167 -15 225 -20 33 -3 87 -8 120 -11 33 -2
80 -6 105 -8 25 -2 80 -7 123 -11 l78 -7 -2 389 c-2 438 -5 467 -70 601 -32
67 -57 101 -118 161 -65 64 -107 94 -276 190 -110 63 -297 171 -415 239 -454
262 -1121 646 -1185 682 -16 9 -91 52 -165 95 -193 113 -261 135 -410 139 -53
1 -110 -4 -151 -14z"/>
<path d="M2096 6139 c-61 -14 -151 -67 -200 -117 -105 -106 -158 -274 -295
-932 -132 -631 -219 -880 -402 -1155 -85 -128 -269 -319 -391 -405 -52 -36
-78 -61 -79 -75 -2 -65 0 -427 3 -430 2 -2 35 10 73 28 409 187 728 496 948
917 92 176 212 492 242 640 2 8 4 15 5 15 1 0 3 11 6 25 10 59 37 119 64 145
52 50 142 44 194 -14 26 -29 71 -168 271 -846 31 -104 58 -197 59 -205 2 -8
29 -105 59 -215 31 -110 92 -346 137 -525 108 -430 159 -602 230 -780 40 -101
132 -283 175 -350 154 -232 416 -357 665 -315 171 29 338 154 465 349 73 113
125 220 255 526 61 146 123 289 136 318 13 29 36 80 50 115 14 34 35 82 46
107 31 67 122 286 154 367 15 40 35 75 43 77 9 3 57 8 106 11 50 3 106 8 125
10 19 2 71 7 115 10 126 10 264 21 360 30 28 3 75 7 105 9 136 12 195 19 199
22 5 5 5 223 0 229 -6 5 -132 19 -279 30 -41 3 -91 8 -110 10 -19 2 -66 7
-105 10 -38 3 -86 8 -105 10 -38 4 -143 13 -260 20 -41 3 -93 7 -115 9 -95 11
-233 20 -274 18 -81 -2 -96 -23 -270 -367 -161 -315 -249 -486 -281 -540 -9
-16 -41 -75 -70 -130 -56 -105 -61 -114 -124 -219 -42 -70 -79 -96 -136 -96
-43 0 -96 26 -119 59 -48 67 -252 672 -411 1216 -50 171 -99 339 -110 375 -24
80 -53 182 -56 195 -6 31 -142 512 -179 635 -187 618 -381 979 -600 1118 -96
61 -218 85 -319 61z"/>
<path d="M1525 5361 c-6 -5 -118 -71 -250 -146 -249 -143 -322 -191 -381 -253
-74 -78 -143 -222 -159 -330 -3 -24 -6 -265 -6 -535 -1 -405 2 -491 13 -489
24 6 141 106 219 187 44 47 57 61 100 113 62 74 153 230 219 377 41 90 117
336 159 515 34 148 121 551 121 565 0 9 -26 5 -35 -4z"/>
<path d="M2116 4678 c-8 -29 -27 -94 -40 -144 -151 -546 -427 -1002 -781
-1289 -157 -128 -369 -255 -517 -310 -40 -15 -48 -22 -48 -44 -1 -14 0 -188 0
-386 1 -410 6 -452 71 -583 74 -150 162 -222 514 -418 11 -6 135 -77 275 -159
140 -81 273 -157 295 -170 22 -12 139 -80 260 -150 121 -70 237 -137 258 -149
21 -11 46 -25 55 -31 632 -369 702 -406 809 -421 181 -27 304 3 514 126 66 38
122 70 124 70 1 0 32 17 66 38 35 22 84 50 109 64 25 14 90 51 145 83 55 32
158 91 229 132 70 41 142 83 160 93 17 11 42 25 56 33 14 7 41 23 60 34 19 11
60 34 90 52 30 17 62 36 70 41 8 6 26 16 40 23 14 7 57 31 95 53 39 23 86 51
105 62 277 157 603 350 641 378 27 19 69 59 95 87 50 57 128 210 139 272 4 22
9 51 12 65 4 20 8 1171 4 1243 -1 19 -19 19 -211 2 -25 -2 -76 -6 -115 -10
-38 -3 -90 -8 -115 -10 -25 -2 -79 -7 -120 -10 -41 -3 -91 -8 -110 -10 -19 -2
-78 -7 -130 -10 -88 -6 -151 -13 -157 -18 -1 -1 -35 -83 -77 -182 -41 -99
-109 -259 -151 -355 -42 -96 -86 -195 -97 -220 -10 -25 -23 -54 -28 -65 -5
-11 -34 -81 -65 -155 -159 -381 -237 -518 -381 -665 -155 -159 -321 -229 -521
-221 -129 6 -187 19 -290 67 -137 65 -243 157 -328 284 -113 171 -215 405
-305 703 -32 108 -121 440 -135 506 -8 40 -13 62 -30 126 -9 36 -18 72 -20 80
-19 91 -214 772 -326 1140 -127 415 -113 380 -150 380 -26 0 -30 -5 -43 -52z"/>
</g>
</svg>
