<svg width="72" height="72" xmlns="http://www.w3.org/2000/svg">

 <g>
  <title>background</title>
  <rect fill="none" id="canvas_background" height="402" width="582" y="-1" x="-1"/>
 </g>
 <g>
  <title>Layer 1</title>
  <path id="svg_2" fill="#cae8ff" d="m8,72l56,0c4.41828,0 8,-3.58172 8,-8l0,-56c0,-4.41828 -3.58172,-8 -8,-8l-56,0c-4.41828,0 -8,3.58172 -8,8l0,56c0,4.41828 3.58172,8 8,8z"/>
  <path id="svg_3" fill="#FFF" d="m35.9985,12c-13.2525,0 -23.9985,10.78709 -23.9985,24.09664c0,10.64403 6.876,19.67519 16.4145,22.86177c1.2,0.22138 1.638,-0.52256 1.638,-1.16108c0,-0.57226 -0.021,-2.08724 -0.033,-4.09768c-6.6765,1.45625 -8.085,-3.23026 -8.085,-3.23026c-1.0905,-2.78298 -2.664,-3.52391 -2.664,-3.52391c-2.1795,-1.4954 0.165,-1.46529 0.165,-1.46529c2.4075,0.17018 3.675,2.48331 3.675,2.48331c2.142,3.68204 5.6175,2.61884 6.9855,2.0014c0.2175,-1.55715 0.8385,-2.61884 1.524,-3.22122c-5.3295,-0.6084 -10.932,-2.67456 -10.932,-11.90751c0,-2.63089 0.9345,-4.78138 2.4705,-6.46654c-0.2475,-0.6099 -1.071,-3.05857 0.234,-6.37617c0,0 2.016,-0.64756 6.6,2.46975c1.9155,-0.53461 3.9675,-0.80116 6.009,-0.8117c2.0385,0.01054 4.092,0.27709 6.009,0.8117c4.581,-3.11731 6.5925,-2.46975 6.5925,-2.46975c1.3095,3.3176 0.486,5.76627 0.2385,6.37617c1.539,1.68516 2.4675,3.83565 2.4675,6.46654c0,9.25554 -5.6115,11.29309 -10.9575,11.88944c0.861,0.74394 1.629,2.21374 1.629,4.46212c0,3.22122 -0.03,5.81898 -0.03,6.6096c0,0.64454 0.432,1.3945 1.65,1.15807c9.5295,-3.19261 16.3995,-12.21774 16.3995,-22.85876c0,-13.30955 -10.746,-24.09664 -24.0015,-24.09664"/>
 </g>
</svg>